<svg
  xmlns="http://www.w3.org/2000/svg"
  xmlns:xlink="http://www.w3.org/1999/xlink"
  version="1.1"
  id="Layer_1"
  x="0px"
  y="0px"
  viewBox="0 0 64 64"
  style="enable-background:new 0 0 64 64"
  xml:space="preserve"
  width="64px"
  height="64px"
>
  <g>
    <path
      d="M59,11H42.827L38.414,3.586C38.149,3.122,37.656,2.857,37.121,2.857H26.879c-0.534,0-1.028,0.266-1.293,0.729  L21.173,11H5c-1.656,0-3,1.344-3,3v2c0,1.656,1.344,3,3,3h1.375l6.524,30.188C13.183,50.666,13.805,51,14.5,51h35   c0.695,0,1.317-0.334,1.601-0.812L57.625,19H59c1.656,0,3-1.344,3-3v-2C62,12.344,60.656,11,59,11z"
      style="fill:#B5CC99"
    />
    <path
      d="M19.878,11l3.607-6.396C23.878,3.239,24.879,3,26,3h12c1.121,0,2.122,0.239,2.515,1.604L42.122,11H19.878z"
      style="fill:#A3BF74"
    />
    <path
      d="M53.928,19H13.979l-5.438,25.143L9.5,47h35l5.459-2.857L53.928,19z"
      style="fill:#FFDC52"
    />
    <path d="M27,24h10c0.552,0,1-0.448,1-1s-0.448-1-1-1H27c-0.552,0-1,0.448-1,1S26.448,24,27,24z" />
    <path d="M23,31h18c0.552,0,1-0.448,1-1s-0.448-1-1-1H23c-0.552,0-1,0.448-1,1S22.448,31,23,31z" />
  </g>
</svg>
